<?xml version="1.0" encoding="UTF-8"?>
<svg version="1.1" xmlns="http://www.w3.org/2000/svg" width="512" height="512">
<path d="M0 0 C0.87849749 -0.00445784 1.75699498 -0.00891569 2.66211361 -0.01350862 C4.11873499 -0.01323207 4.11873499 -0.01323207 5.60478306 -0.01294994 C6.63186943 -0.01662663 7.6589558 -0.02030332 8.71716601 -0.02409142 C12.18162751 -0.03516263 15.64605905 -0.03897797 19.11053562 -0.04278088 C21.58556305 -0.0490431 24.06058953 -0.05568968 26.53561497 -0.0626936 C33.98169294 -0.08195007 41.42776296 -0.09252812 48.87385854 -0.10142139 C52.38154476 -0.10580414 55.88922946 -0.11117117 59.39691448 -0.11641026 C71.06096521 -0.13342761 82.72501499 -0.14791951 94.38907623 -0.155159 C97.41716036 -0.15706887 100.44524449 -0.1589892 103.47332859 -0.16094494 C104.60224227 -0.16167055 104.60224227 -0.16167055 105.75396229 -0.16241082 C117.93262018 -0.17070249 130.11117957 -0.19602249 142.2897945 -0.22852562 C154.79802017 -0.26163556 167.30619587 -0.27961151 179.81446558 -0.28280324 C186.8353616 -0.28496524 193.85611419 -0.29366769 200.87696743 -0.31926441 C207.48678937 -0.34330678 214.09640024 -0.34677236 220.70627308 -0.33650303 C223.12856179 -0.33600786 225.55086324 -0.34232267 227.97311306 -0.35605907 C231.28879425 -0.37380516 234.6035535 -0.36665751 237.91923618 -0.35352612 C238.87024061 -0.36449536 239.82124503 -0.37546461 240.80106777 -0.38676625 C251.78883947 -0.28223375 260.89659247 3.55746117 268.83343601 11.13422108 C279.61370994 22.42682486 280.42191705 34.60141818 280.34137058 49.46674061 C280.34598436 51.32455972 280.35234047 53.18237519 280.36027956 55.04018307 C280.37693042 60.12490184 280.36874578 65.20931912 280.35633469 70.29403877 C280.34726916 75.78560681 280.36126139 81.27712371 280.37225437 86.76868153 C280.39002809 97.51858144 280.38620468 108.26836956 280.37460381 119.01827383 C280.36556527 127.75600857 280.36434732 136.49371201 280.36869907 145.23145008 C280.36931201 146.4756963 280.36992494 147.71994251 280.37055644 149.00189316 C280.37183536 151.52966325 280.37313222 154.05743334 280.37444681 156.58520341 C280.38552429 179.6052171 280.37404224 202.62518132 280.35307642 225.64518288 C280.33409491 246.64611886 280.33579346 267.64695782 280.35492039 288.64789295 C280.37635303 312.25920262 280.38475064 335.87047099 280.37247133 359.4817915 C280.37119715 362.00019168 280.36993967 364.51859187 280.36869907 367.03699207 C280.36777342 368.89557746 280.36777342 368.89557746 280.36682907 370.79171002 C280.36337735 379.51756763 280.36920069 388.24339078 280.37861729 396.96924305 C280.38984296 407.60512494 280.38678516 418.24088876 280.36549431 428.87675714 C280.35499167 434.30192626 280.35084884 439.72689863 280.36409092 445.15206623 C280.37603667 450.12134284 280.36941609 455.09024087 280.34818071 460.05948329 C280.34372393 461.85408555 280.34596008 463.64871999 280.35568386 465.44330144 C280.42565066 479.43255092 278.8616834 490.62938371 268.83343601 501.13422108 C259.02442904 510.49820694 248.60796237 512.73957879 235.36029148 512.64215565 C234.04375017 512.64839561 232.72720886 512.65463557 231.37077236 512.66106462 C227.74541384 512.6776516 224.12048038 512.66956067 220.495121 512.65711975 C216.574112 512.6480276 212.65317345 512.66205953 208.73217869 512.67303944 C201.06238818 512.69078502 193.39275464 512.6870024 185.72295809 512.67538887 C179.48712697 512.66633918 173.2513397 512.66513718 167.01550388 512.66948414 C166.12650391 512.67009707 165.23750393 512.67071 164.32156456 512.67134151 C162.51533046 512.67262047 160.70909638 512.67391732 158.90286231 512.67523187 C141.98323672 512.68662607 125.06369795 512.67354221 108.1440866 512.65203041 C93.64010232 512.63416048 79.13624611 512.63726491 64.63226414 512.65570545 C47.77137044 512.67713269 30.91055275 512.68552754 14.04964733 512.6732564 C12.25022095 512.67198226 10.45079455 512.67072478 8.65136814 512.66948414 C7.76611733 512.66886704 6.88086653 512.66824993 5.96878994 512.66761413 C-0.25638003 512.66416679 -6.48150161 512.66997627 -12.70666409 512.67940235 C-20.29762638 512.69064433 -27.88842332 512.68753619 -35.47936678 512.66627938 C-39.34915767 512.65579843 -43.21867329 512.65159627 -47.08846188 512.66487598 C-51.29035193 512.67907681 -55.49155264 512.66207108 -59.69341946 512.64215565 C-60.90676023 512.65107853 -62.12010101 512.66000142 -63.37020969 512.6691947 C-75.19037913 512.56073307 -84.54861032 509.36119008 -93.16656399 501.13422108 C-103.18745689 490.63708772 -104.76475366 479.39999109 -104.69468594 465.401021 C-104.70145346 463.82567192 -104.70994861 462.25032948 -104.72000915 460.67499799 C-104.74242291 456.37120168 -104.74009386 452.06772883 -104.7334398 447.76389253 C-104.73055602 443.11285881 -104.75063942 438.46191377 -104.76759243 433.81091785 C-104.79689722 424.71038515 -104.80424354 415.60996339 -104.80301692 406.50938836 C-104.8021837 399.11315632 -104.80805415 391.71695928 -104.81864262 384.32073498 C-104.85129838 361.05895619 -104.86031037 337.79728527 -104.85155288 314.5354869 C-104.84556617 296.18624429 -104.87599868 277.83726846 -104.9231756 259.4880924 C-104.97125936 240.63907673 -104.99335328 221.79018962 -104.98786479 202.94111127 C-104.98528766 192.36180121 -104.99328839 181.78274701 -105.02893543 171.20349026 C-105.05903093 162.20116945 -105.06484155 153.19923784 -105.03912642 144.19689647 C-105.02669234 139.60428556 -105.02553908 135.0124066 -105.05483532 130.41985607 C-105.08137057 126.21464098 -105.07552262 122.01075322 -105.04400537 117.80558398 C-105.03827486 116.28558903 -105.04433496 114.76549365 -105.06346139 113.24560825 C-105.21312146 100.48992268 -105.21312146 100.48992268 -100.87996006 95.45033169 C-99.66953729 94.31504951 -98.43417083 93.20527746 -97.16656399 92.13422108 C-96.41517745 91.34130696 -95.66379091 90.54839285 -94.88963509 89.73145103 C-94.22761998 89.0690589 -93.56560488 88.40666677 -92.88352871 87.72420216 C-92.11110836 86.94896198 -91.33868801 86.17372181 -90.54286098 85.37498951 C-89.7202528 84.55440556 -88.89764462 83.7338216 -88.05010891 82.88837147 C-87.16472439 82.00123463 -86.27933987 81.11409779 -85.36712551 80.20007801 C-82.96232402 77.79165493 -80.55532755 75.38547037 -78.14712214 72.98045373 C-75.6201401 70.45602042 -73.09561788 67.92912901 -70.57069302 65.40263844 C-66.33857547 61.1687085 -62.10436882 56.93687645 -57.86895657 52.70624256 C-52.97103454 47.81378251 -48.07675374 42.91770199 -43.18430728 38.01976687 C-38.97539252 33.80631956 -34.76453914 29.59481712 -30.55204755 25.38494581 C-28.03929299 22.87375053 -25.52721979 20.36188368 -23.01689625 17.84825802 C-20.22613346 15.05407956 -17.43131013 12.26398512 -14.63604641 9.47430897 C-13.80331707 8.6395554 -12.97058773 7.80480183 -12.11262417 6.94475269 C-11.35430294 6.18925129 -10.59598171 5.43374989 -9.81468105 4.6553545 C-8.82448609 3.66572507 -8.82448609 3.66572507 -7.81428719 2.65610313 C-5.18208395 0.22492848 -3.48273122 0.00817649 0 0 Z M7.83343601 16.13422108 C7.82463665 17.85310284 7.82463665 17.85310284 7.81565952 19.60670948 C7.75850825 30.39284826 7.68578664 41.17878396 7.5977211 51.96471596 C7.55294604 57.51021663 7.51370571 63.05564262 7.48700047 68.60126209 C7.46103863 73.95061065 7.42068697 79.29967288 7.37024975 84.64884472 C7.35353274 86.69219566 7.34204867 88.73559617 7.33582211 90.779006 C7.32623348 93.6357553 7.29823747 96.49176405 7.26580906 99.34833241 C7.26796169 100.62255558 7.26796169 100.62255558 7.27015781 101.92252064 C7.17748717 107.67446479 7.17748717 107.67446479 5.54935551 109.85014057 C2.5090115 112.12533266 -1.29550129 111.57277207 -4.95245266 111.56659412 C-6.29910252 111.5818816 -6.29910252 111.5818816 -7.67295742 111.59747791 C-10.64354526 111.62769786 -13.61381113 111.63688761 -16.58453274 111.64593983 C-18.64291876 111.66277983 -20.70129445 111.68092915 -22.75965786 111.70033741 C-28.17982666 111.74791712 -33.5999536 111.77767493 -39.02026272 111.80377674 C-44.55023372 111.83354206 -50.08006036 111.88008619 -55.60992336 111.9252367 C-66.46206152 112.01136051 -77.31422932 112.07866541 -88.16656399 112.13422108 C-88.21233951 157.8428922 -88.24758223 203.55156089 -88.26869465 249.26025042 C-88.27119607 254.65631034 -88.27378471 260.05237021 -88.27642727 265.44843006 C-88.27695189 266.52269059 -88.27747651 267.59695111 -88.27801703 268.70376498 C-88.28672016 286.0991146 -88.30248964 303.49445101 -88.32086958 320.88979279 C-88.33957117 338.73838129 -88.35068126 356.58696287 -88.35474098 374.43556076 C-88.35748549 385.44950066 -88.36615461 396.46340319 -88.38239692 407.47733159 C-88.39296699 415.02950305 -88.39616456 422.5816552 -88.39356674 430.13383352 C-88.39228549 434.49132247 -88.39425278 438.84874614 -88.40497494 443.20622349 C-88.41472564 447.19809132 -88.41518708 451.1898501 -88.40836178 455.18172301 C-88.40751852 456.62332936 -88.41004014 458.06494259 -88.41633035 459.50653546 C-88.4602661 470.20041654 -88.4813049 480.6312989 -81.16656399 489.13422108 C-72.68300303 496.43230627 -62.28902037 496.42962398 -51.60381985 496.38818836 C-49.73971037 496.39286833 -49.73971037 496.39286833 -47.83794212 496.39764285 C-44.40949524 496.40421444 -40.98126916 496.40188379 -37.55283594 496.39567041 C-33.84725836 496.39113061 -30.14169956 496.39813724 -26.43612576 496.40363026 C-19.18520624 496.41250962 -11.93432819 496.41060874 -4.68340707 496.40480497 C1.21113693 496.40028275 7.10566934 496.39967801 13.00021458 496.40185261 C14.26005243 496.40231231 14.26005243 496.40231231 15.54534155 496.40278129 C17.25172417 496.40342076 18.95810678 496.40406919 20.66448939 496.40472648 C36.6540794 496.4104255 52.64364646 496.40387858 68.63323271 496.39312574 C82.34418437 496.38419062 96.05510215 496.38574278 109.7660532 496.39496326 C125.69959254 496.40567344 141.63311177 496.40987622 157.56665421 496.40373874 C159.26665528 496.40310166 160.96665636 496.40247292 162.66665745 496.40185261 C163.50302567 496.40154406 164.33939389 496.40123551 165.20110661 496.4009176 C171.0865401 496.39919291 176.9719608 496.40210091 182.85739231 496.40681171 C190.03266409 496.41242885 197.20789213 496.41088659 204.38315892 496.40025023 C208.04199235 496.39500473 211.70075292 496.3929176 215.35958576 496.39954853 C219.3299954 496.40663515 223.3002865 496.39815633 227.27069187 496.38818836 C228.4211855 496.39264981 229.57167913 496.39711125 230.75703621 496.40170789 C240.59190929 496.35382895 249.19481665 495.81340604 256.46234226 488.49359608 C262.97804727 481.27136884 263.95689507 474.26332762 263.96207047 464.67436981 C263.96470002 463.57396362 263.96470002 463.57396362 263.9673827 462.451327 C263.97203657 459.99182089 263.96957877 457.53237405 263.96714878 455.07286549 C263.96901706 453.29218714 263.97131783 451.51150921 263.9740141 449.73083192 C263.9801364 444.83627898 263.979998 439.94174311 263.97881973 435.04718721 C263.97861583 429.76894992 263.98413342 424.49071814 263.9888773 419.21248341 C263.99718671 408.87101474 263.99993227 398.52955176 264.00048967 388.18808004 C264.00096469 379.78297832 264.00301869 371.37787849 264.0061903 362.97277737 C264.01499758 339.148004 264.01960955 315.32323514 264.01885983 291.49846014 C264.01881987 290.21383498 264.01877991 288.92920982 264.01873875 287.60565662 C264.01869787 286.31946485 264.01865699 285.03327307 264.01861487 283.70810578 C264.01820835 262.86001174 264.02777909 242.01193575 264.04187711 221.16384693 C264.05623532 199.76230738 264.06314761 178.36077664 264.06228334 156.95923215 C264.06195118 144.94182658 264.06470646 132.92443993 264.07546139 120.90703869 C264.08455906 110.67578555 264.08674766 100.44455992 264.07995196 90.21330448 C264.07668309 84.99301666 264.07664335 79.77278164 264.08530521 74.55249882 C264.09315483 69.77259251 264.0917545 64.99278102 264.08302108 60.21287707 C264.08148271 58.4847781 264.08331494 56.7566721 264.08888116 55.0285814 C264.46618509 37.91208838 264.46618509 37.91208838 256.83343601 23.13422108 C248.43696274 16.58781818 240.49135244 15.97993819 230.18403721 16.01396656 C229.23067209 16.01311214 228.27730697 16.01225771 227.29505199 16.01137739 C224.11064311 16.00973444 220.92628728 16.01522455 217.74188328 16.02069569 C215.45516556 16.02097784 213.16844775 16.02081927 210.88173008 16.02025318 C204.67985511 16.01996631 198.47799948 16.02584535 192.27612901 16.03282714 C185.79254171 16.0390789 179.30895396 16.03966592 172.82536411 16.04085255 C161.9449946 16.04360738 151.06463222 16.04985337 140.18426609 16.05878162 C128.97951385 16.06796648 117.77476353 16.07504206 106.57000828 16.07928944 C105.87886437 16.07955216 105.18772046 16.07981488 104.47563279 16.08008557 C101.00822272 16.08139065 97.54081262 16.08265434 94.07340252 16.08389747 C65.32674233 16.09425715 36.58008934 16.11193873 7.83343601 16.13422108 Z M-13.4794302 33.31155872 C-14.09298367 33.92713642 -14.70653713 34.54271412 -15.33868313 35.17694569 C-15.98256481 35.81907505 -16.6264465 36.46120441 -17.28983974 37.12279224 C-19.42966627 39.25819691 -21.56579013 41.39726328 -23.70172024 43.53656483 C-25.17988064 45.01405229 -26.65818952 46.49139122 -28.1366415 47.96858692 C-31.23947436 51.06994235 -34.3404831 54.17310753 -37.44024563 57.27753162 C-41.42418614 61.26716944 -45.41259785 65.25230239 -49.4023819 69.23609543 C-52.45724276 72.28735188 -55.50972897 75.34097492 -58.56149006 78.39533138 C-60.03164478 79.86615571 -61.50254961 81.33623063 -62.97419834 82.80556011 C-65.02650102 84.85533823 -67.0755958 86.90826887 -69.12383938 88.96210194 C-69.73941708 89.5756554 -70.35499477 90.18920887 -70.98922634 90.82135487 C-73.83507782 93.110159 -73.83507782 93.110159 -75.16656399 96.13422108 C-53.05656399 96.13422108 -30.94656399 96.13422108 -8.16656399 96.13422108 C-8.16656399 74.02422108 -8.16656399 51.91422108 -8.16656399 29.13422108 C-10.42389681 29.13422108 -11.95735533 31.79719342 -13.4794302 33.31155872 Z " fill="#0d6efd" transform="translate(168.16656398773193,-0.13422107696533203)"/>
<path d="M0 0 C89.76 0 179.52 0 272 0 C272 5.28 272 10.56 272 16 C182.24 16 92.48 16 0 16 C0 10.72 0 5.44 0 0 Z " fill="#0d6efd" transform="translate(120,440)"/>
<path d="M0 0 C89.76 0 179.52 0 272 0 C272 5.28 272 10.56 272 16 C182.24 16 92.48 16 0 16 C0 10.72 0 5.44 0 0 Z " fill="#0d6efd" transform="translate(120,392)"/>
<path d="M0 0 C89.76 0 179.52 0 272 0 C272 5.28 272 10.56 272 16 C182.24 16 92.48 16 0 16 C0 10.72 0 5.44 0 0 Z " fill="#0d6efd" transform="translate(120,344)"/>
<path d="M0 0 C89.76 0 179.52 0 272 0 C272 5.28 272 10.56 272 16 C182.24 16 92.48 16 0 16 C0 10.72 0 5.44 0 0 Z " fill="#0d6efd" transform="translate(120,296)"/>
<path d="M0 0 C89.76 0 179.52 0 272 0 C272 5.28 272 10.56 272 16 C182.24 16 92.48 16 0 16 C0 10.72 0 5.44 0 0 Z " fill="#0d6efd" transform="translate(120,248)"/>
<path d="M0 0 C1.79638885 -0.00270077 3.59277626 -0.00658802 5.38916016 -0.01159668 C9.13783813 -0.01746427 12.88613256 -0.00901786 16.63476562 0.00976562 C21.41251161 0.03255361 26.18935845 0.01941572 30.96707153 -0.00452423 C34.67169836 -0.01905676 38.37611599 -0.01434227 42.08074951 -0.00401306 C43.84120798 -0.00136632 45.60168616 -0.00454231 47.36212158 -0.01393127 C61.47092295 -0.07268554 72.70997267 1.35008024 83.375 11.53125 C95.0429884 23.75375666 94.91561583 36.76915031 94.625 52.71875 C94.60490117 54.6438616 94.58665639 56.56899349 94.5703125 58.49414062 C94.52659214 63.17368504 94.45775238 67.85223973 94.375 72.53125 C89.095 72.53125 83.815 72.53125 78.375 72.53125 C78.32601562 70.32566406 78.27703125 68.12007813 78.2265625 65.84765625 C78.17236631 63.68296218 78.11513264 61.5183679 78.05761719 59.35375977 C78.0196185 57.86327727 77.98471804 56.37271211 77.953125 54.88208008 C77.80988628 39.33410718 77.80988628 39.33410718 71.375 25.53125 C71.375 24.87125 71.375 24.21125 71.375 23.53125 C70.83875 23.263125 70.3025 22.995 69.75 22.71875 C67.99950404 21.84350202 66.27332543 20.91920857 64.5625 19.96875 C59.18936362 17.54557085 53.67909988 17.4062981 47.84814453 17.38598633 C46.59639435 17.37960648 45.34464417 17.37322662 44.05496216 17.36665344 C42.70591267 17.36512441 41.35686266 17.36401064 40.0078125 17.36328125 C38.60448168 17.36006208 37.20115119 17.35669752 35.79782104 17.35319519 C32.86439232 17.34722878 29.93099295 17.34535275 26.99755859 17.34594727 C23.26002351 17.34604881 19.52267873 17.33239371 15.78518867 17.31517506 C12.88877517 17.30399479 9.99240683 17.30202989 7.09597397 17.30255699 C5.71902689 17.30138606 4.34207828 17.29701477 2.96515274 17.28922462 C-7.3590107 17.23627427 -16.07770993 17.27713531 -24.625 23.53125 C-25.285 23.53125 -25.945 23.53125 -26.625 23.53125 C-30.94199738 31.83316803 -32.68011317 38.78529182 -32.94140625 48.1171875 C-32.96218735 48.81897125 -32.98296844 49.520755 -33.00437927 50.24380493 C-33.06926324 52.46452958 -33.1284723 54.68536276 -33.1875 56.90625 C-33.23074354 58.42058371 -33.2743596 59.93490683 -33.31835938 61.44921875 C-33.42557557 65.14312007 -33.52510106 68.83711469 -33.625 72.53125 C-38.905 72.53125 -44.185 72.53125 -49.625 72.53125 C-49.72470521 66.89368711 -49.79685967 61.25665 -49.84472656 55.6184082 C-49.86470419 53.70490566 -49.89189599 51.79146308 -49.92675781 49.87817383 C-50.19363085 34.84301772 -49.52649759 22.95083856 -38.625 11.53125 C-27.17536511 0.60106924 -15.00215201 -0.08001124 0 0 Z " fill="#0d6efd" transform="translate(297.625,135.46875)"/>
<path d="M0 0 C9.08856051 6.54619936 14.73812816 14.67631124 17.58203125 25.4921875 C18.10995654 29.84377613 18.1437071 34.11320221 18.08203125 38.4921875 C18.10523438 40.13960937 18.10523438 40.13960937 18.12890625 41.8203125 C18.07328763 53.55584097 14.72984306 62.95715295 6.58203125 71.4921875 C-2.64510052 80.30069703 -12.26841199 83.11793051 -24.78271484 82.96289062 C-36.60994382 82.49468278 -45.25903982 77.943818 -53.390625 69.42578125 C-61.20536971 60.15095684 -63.08524526 50.36881957 -62.91796875 38.4921875 C-62.9334375 37.39390625 -62.94890625 36.295625 -62.96484375 35.1640625 C-62.90922513 23.42853403 -59.56578056 14.02722205 -51.41796875 5.4921875 C-37.63784493 -7.66275112 -16.31305228 -10.17259803 0 0 Z M-41.0703125 19.35546875 C-46.72898244 27.54003773 -47.44916431 37.43296648 -45.73046875 46.9921875 C-44.05759287 53.68369103 -41.15646499 58.66799598 -35.29296875 62.4296875 C-28.77744711 66.16914058 -21.38628719 66.80536258 -14.09765625 64.87890625 C-7.82206084 62.08565104 -3.19790179 56.89024148 -0.04296875 50.8671875 C2.58321295 40.88769705 2.56164264 30.54248248 -2.41796875 21.3046875 C-5.76469747 16.46405668 -9.9087595 13.51149926 -15.41796875 11.4921875 C-25.5371754 9.7766748 -34.1134042 11.5104445 -41.0703125 19.35546875 Z " fill="#0d6efd" transform="translate(342.41796875,45.5078125)"/>
<path d="M0 0 C31.68 0 63.36 0 96 0 C96 5.28 96 10.56 96 16 C64.32 16 32.64 16 0 16 C0 10.72 0 5.44 0 0 Z " fill="#0d6efd"  transform="translate(120,200)"/>
<path d="M0 0 C31.68 0 63.36 0 96 0 C96 5.28 96 10.56 96 16 C64.32 16 32.64 16 0 16 C0 10.72 0 5.44 0 0 Z " fill="#0d6efd" transform="translate(120,152)"/>
</svg>
