<?xml version="1.0" encoding="UTF-8"?>
<svg version="1.1" fill="#0d6efd" xmlns="http://www.w3.org/2000/svg" width="512" height="512">
<path d="M0 0 C0.85072083 -0.0049649 1.70144165 -0.00992981 2.57794189 -0.01504517 C5.39458014 -0.02966017 8.21116208 -0.03646743 11.02783203 -0.04199219 C12.98454795 -0.04774385 14.94126385 -0.05350158 16.89797974 -0.05926514 C21.00197614 -0.06977301 25.10595297 -0.07561719 29.20996094 -0.07910156 C34.46812006 -0.08458813 39.72602048 -0.10862056 44.98409843 -0.13707352 C49.02642574 -0.15569815 53.06869069 -0.16090539 57.11105728 -0.16243744 C59.04953553 -0.16546451 60.98801266 -0.17349486 62.92644882 -0.18662262 C65.63866618 -0.20368061 68.35025074 -0.20180358 71.0625 -0.1953125 C71.86267548 -0.20452728 72.66285095 -0.21374207 73.48727417 -0.22323608 C79.4649076 -0.17842976 82.53284923 1.26975921 86.91064453 5.16113281 C90.09944234 8.80547316 89.76913256 12.20384225 89.72314453 16.84863281 C89.71412109 18.028125 89.70509766 19.20761719 89.69580078 20.42285156 C89.67839844 21.77830078 89.67839844 21.77830078 89.66064453 23.16113281 C90.64291016 23.12971191 90.64291016 23.12971191 91.64501953 23.09765625 C94.65006782 23.01382898 97.65486917 22.96226386 100.66064453 22.91113281 C101.69060547 22.87761719 102.72056641 22.84410156 103.78173828 22.80957031 C111.94302778 22.70560484 117.10549181 24.2523715 123.41064453 29.41113281 C127.78234521 34.75432253 129.90780415 38.91300079 129.76611328 45.93457031 C129.75088623 46.91603027 129.73565918 47.89749023 129.7199707 48.90869141 C129.69060425 50.0236499 129.69060425 50.0236499 129.66064453 51.16113281 C130.54490112 51.15225037 131.42915771 51.14336792 132.34020996 51.13421631 C140.69643414 51.05388089 149.05252756 50.99307235 157.40904999 50.95388412 C161.70467174 50.93305928 165.99997288 50.90483586 170.29541016 50.859375 C174.44514594 50.81573383 178.59457443 50.79195736 182.74452209 50.78162384 C184.32329644 50.77426508 185.90205504 50.75989529 187.48069763 50.73821259 C204.2786056 50.51678648 204.2786056 50.51678648 211.68408203 56.90722656 C212.13009766 57.46539062 212.57611328 58.02355469 213.03564453 58.59863281 C213.72787109 59.43201172 213.72787109 59.43201172 214.43408203 60.28222656 C217.40798426 64.83779016 217.91176764 68.74883546 217.91791344 74.14153004 C217.92141951 74.83544732 217.92492559 75.52936461 217.92853791 76.24430969 C217.93785883 78.57488417 217.93292686 80.90520915 217.92807007 83.23579407 C217.93180598 84.92145322 217.93640727 86.60711065 217.94180071 88.29276532 C217.95405341 92.92928717 217.95376758 97.56573699 217.95141196 102.20227134 C217.95100437 107.2010312 217.96203744 112.19976779 217.9715271 117.19851685 C217.98815048 126.99368281 217.99363725 136.78882471 217.99475186 146.5840036 C217.99570169 154.54482311 217.99980874 162.50563466 218.00615311 170.46645164 C218.0237691 193.02943875 218.03299141 215.59240682 218.03149216 238.15540085 C218.03141225 239.37215324 218.03133233 240.58890562 218.03125 241.8425293 C218.03116824 243.06076475 218.03108648 244.2790002 218.03100224 245.53415187 C218.03018922 265.28046731 218.04933 285.02670649 218.07752673 304.77299986 C218.10624056 325.04110464 218.12006786 345.30917222 218.11833918 365.57729787 C218.11767476 376.95922673 218.12318969 388.34107566 218.14469528 399.72298622 C218.16288731 409.41340378 218.16727068 419.10370516 218.15367644 428.79413239 C218.14713683 433.73891522 218.14706542 438.68347502 218.16438293 443.62823677 C218.18007477 448.15534398 218.17728988 452.68205062 218.15981467 457.20914783 C218.15673619 458.84641294 218.16040902 460.48370766 218.17153482 462.12093786 C218.23050771 471.41510871 218.26838743 478.82151129 211.91455078 486.18457031 C211.35638672 486.63058594 210.79822266 487.07660156 210.22314453 487.53613281 C209.66755859 487.99761719 209.11197266 488.45910156 208.53955078 488.93457031 C204.40543094 491.63335125 200.78145049 492.41151608 195.88278484 492.41840172 C194.72127586 492.42485061 193.55976688 492.4312995 192.36306065 492.43794382 C191.09128698 492.43484661 189.81951331 492.43174941 188.50920105 492.42855835 C187.14115104 492.43229538 185.77310317 492.43689711 184.40505868 492.44228899 C180.64645334 492.45452799 176.88793694 492.45425748 173.12931621 492.45190024 C169.07534784 492.4514923 165.02140807 492.46252905 160.967453 492.47201538 C153.0251732 492.48863132 145.08292308 492.4941252 137.14062735 492.49524014 C130.68486067 492.49619034 124.2291038 492.50029923 117.77334023 492.50664139 C99.47134187 492.52425548 81.16936697 492.53348001 62.86736008 492.53198044 C61.88060635 492.53190053 60.89385262 492.53182062 59.87719727 492.53173828 C58.3952601 492.53161564 58.3952601 492.53161564 56.8833848 492.53149052 C40.87148074 492.53067759 24.85967075 492.54981661 8.8477939 492.57801501 C-7.59183014 492.60673834 -24.0314083 492.62055561 -40.47105807 492.61882746 C-49.70117743 492.61816337 -58.93119818 492.62366423 -68.16129494 492.64518356 C-76.02000078 492.66338811 -83.87856333 492.6677487 -91.73728112 492.65416472 C-95.74640982 492.64763134 -99.75526355 492.64753099 -103.76436615 492.66487122 C-107.43660959 492.680591 -111.10835977 492.67774994 -114.78059109 492.66030295 C-116.73392256 492.65577832 -118.68726925 492.67089903 -120.64054137 492.68678224 C-128.59384797 492.62422409 -134.1656847 491.76273674 -140.36279297 486.41503906 C-140.80880859 485.856875 -141.25482422 485.29871094 -141.71435547 484.72363281 C-142.17583984 484.16804688 -142.63732422 483.61246094 -143.11279297 483.04003906 C-146.0866952 478.48447546 -146.59047857 474.57343016 -146.59662437 469.18073559 C-146.60013045 468.4868183 -146.60363652 467.79290101 -146.60724884 467.07795593 C-146.61656976 464.74738145 -146.6116378 462.41705648 -146.60678101 460.08647156 C-146.61051692 458.4008124 -146.6151182 456.71515497 -146.62051165 455.02950031 C-146.63276435 450.39297846 -146.63247851 445.75652864 -146.6301229 441.11999428 C-146.62971531 436.12123442 -146.64074837 431.12249784 -146.65023804 426.12374878 C-146.66686141 416.32858281 -146.67234819 406.53344091 -146.67346279 396.73826202 C-146.67441263 388.77744252 -146.67851968 380.81663097 -146.68486404 372.85581398 C-146.70248004 350.29282687 -146.71170234 327.72985881 -146.7102031 305.16686478 C-146.71012318 303.95011239 -146.71004327 302.73336 -146.70996094 301.47973633 C-146.70987918 300.26150088 -146.70979741 299.04326543 -146.70971318 297.78811375 C-146.70890016 278.04179832 -146.72804094 258.29555914 -146.75623767 238.54926576 C-146.7849515 218.28116098 -146.79877879 198.01309341 -146.79705012 177.74496776 C-146.7963857 166.36303889 -146.80190063 154.98118997 -146.82340622 143.5992794 C-146.84159825 133.90886184 -146.84598161 124.21856046 -146.83238737 114.52813324 C-146.82584777 109.58335041 -146.82577635 104.6387906 -146.84309387 99.69402885 C-146.85878571 95.16692164 -146.85600082 90.640215 -146.83852561 86.11311779 C-146.83544713 84.47585268 -146.83911996 82.83855796 -146.85024576 81.20132776 C-146.95681205 64.40640148 -146.95681205 64.40640148 -140.55810547 57.13769531 C-139.99091797 56.69167969 -139.42373047 56.24566406 -138.83935547 55.78613281 C-138.27216797 55.32464844 -137.70498047 54.86316406 -137.12060547 54.38769531 C-132.70118079 51.34449499 -129.61097653 50.9153686 -124.18408203 50.93408203 C-123.1151899 50.93364395 -123.1151899 50.93364395 -122.02470398 50.93319702 C-119.67633766 50.93458705 -117.32829116 50.95013259 -114.97998047 50.96582031 C-113.34902113 50.96955161 -111.71805955 50.97239803 -110.08709717 50.97439575 C-105.79955836 50.98202301 -101.51215557 51.00166369 -97.22467041 51.02380371 C-92.8475529 51.04428169 -88.47041335 51.05340164 -84.09326172 51.06347656 C-75.50856396 51.08491046 -66.92397665 51.11903543 -58.33935547 51.16113281 C-58.34837387 50.40246414 -58.35739227 49.64379547 -58.36668396 48.86213684 C-58.37369827 47.86872787 -58.38071259 46.87531891 -58.38793945 45.85180664 C-58.39695786 44.86626297 -58.40597626 43.8807193 -58.41526794 42.86531067 C-58.27344932 37.81340349 -56.35719728 34.12942136 -53.33935547 30.16113281 C-47.98447385 25.54711923 -43.13054148 23.02416493 -36.01513672 23.06347656 C-34.98710937 23.06669922 -33.95908203 23.06992187 -32.89990234 23.07324219 C-31.29211914 23.08581055 -31.29211914 23.08581055 -29.65185547 23.09863281 C-28.02666992 23.10540039 -28.02666992 23.10540039 -26.36865234 23.11230469 C-23.69216462 23.12409538 -21.0157877 23.14055218 -18.33935547 23.16113281 C-18.38576172 22.29230469 -18.43216797 21.42347656 -18.47998047 20.52832031 C-18.83957183 9.047082 -18.83957183 9.047082 -14.33935547 4.16113281 C-13.82373047 3.56300781 -13.30810547 2.96488281 -12.77685547 2.34863281 C-9.12258595 -0.67011157 -4.46717289 0.0062093 0 0 Z M-2.33935547 16.16113281 C-2.33935547 24.41113281 -2.33935547 32.66113281 -2.33935547 41.16113281 C22.74064453 41.16113281 47.82064453 41.16113281 73.66064453 41.16113281 C73.66064453 32.91113281 73.66064453 24.66113281 73.66064453 16.16113281 C48.58064453 16.16113281 23.50064453 16.16113281 -2.33935547 16.16113281 Z M-42.33935547 44.16113281 C-42.33935547 56.37113281 -42.33935547 68.58113281 -42.33935547 81.16113281 C9.14064453 81.16113281 60.62064453 81.16113281 113.66064453 81.16113281 C113.66064453 68.95113281 113.66064453 56.74113281 113.66064453 44.16113281 C109.52462299 39.16161799 109.52462299 39.16161799 106.34887695 38.59350586 C105.19415894 38.63278198 105.19415894 38.63278198 104.01611328 38.67285156 C103.175 38.68896484 102.33388672 38.70507812 101.46728516 38.72167969 C100.60296875 38.76357422 99.73865234 38.80546875 98.84814453 38.84863281 C97.96449219 38.87119141 97.08083984 38.89375 96.17041016 38.91699219 C93.99975543 38.97565853 91.82997763 39.06533302 89.66064453 39.16113281 C89.62326172 40.13695312 89.58587891 41.11277344 89.54736328 42.11816406 C89.44875 44.02662109 89.44875 44.02662109 89.34814453 45.97363281 C89.29013672 47.23820312 89.23212891 48.50277344 89.17236328 49.80566406 C88.6303832 53.35956396 88.40710887 54.07080787 85.66064453 56.16113281 C83.73814392 56.53865623 83.73814392 56.53865623 81.52368164 56.54208374 C80.68247772 56.55054321 79.8412738 56.55900269 78.97457886 56.56771851 C78.05500397 56.56164581 77.13542908 56.55557312 76.18798828 56.54931641 C75.21701202 56.55457336 74.24603577 56.55983032 73.24563599 56.56524658 C70.02964283 56.57847199 66.8141429 56.56969935 63.59814453 56.55957031 C61.36759343 56.56159031 59.13704297 56.56450113 56.90649414 56.56826782 C52.22910278 56.57269463 47.55188314 56.56624854 42.87451172 56.55224609 C36.87178376 56.53515416 30.86945818 56.54499342 24.866745 56.56296349 C20.26001948 56.57379162 15.65338974 56.57035942 11.04666138 56.56258011 C8.8330175 56.56057542 6.619365 56.56304675 4.4057312 56.57001877 C1.31468594 56.57761715 -1.77570298 56.56605135 -4.86669922 56.54931641 C-5.78627411 56.5553891 -6.705849 56.56146179 -7.65328979 56.56771851 C-8.91509567 56.5550293 -8.91509567 56.5550293 -10.20239258 56.54208374 C-10.93316513 56.54095266 -11.66393768 56.53982159 -12.41685486 56.53865623 C-14.92987131 56.04517261 -15.80881221 55.18744746 -17.33935547 53.16113281 C-17.85107422 49.80566406 -17.85107422 49.80566406 -18.02685547 45.97363281 C-18.09259766 44.70132813 -18.15833984 43.42902344 -18.22607422 42.11816406 C-18.26345703 41.14234375 -18.30083984 40.16652344 -18.33935547 39.16113281 C-21.40333998 39.02582437 -24.46132673 38.92689212 -27.52685547 38.84863281 C-28.82333008 38.78579102 -28.82333008 38.78579102 -30.14599609 38.72167969 C-30.98710937 38.70556641 -31.82822266 38.68945312 -32.69482422 38.67285156 C-33.46463623 38.64666748 -34.23444824 38.6204834 -35.02758789 38.59350586 C-38.20333393 39.16161799 -38.20333393 39.16161799 -42.33935547 44.16113281 Z M-130.33935547 71.16113281 C-130.93954762 74.31249264 -130.93954762 74.31249264 -130.84272003 77.90471649 C-130.84853379 78.58517133 -130.85434756 79.26562617 -130.8603375 79.96670085 C-130.87499115 82.25773873 -130.86102837 84.5477142 -130.84729004 86.83874512 C-130.85189686 88.49339711 -130.85824831 90.14804501 -130.86619902 91.80268431 C-130.88294561 96.35806634 -130.87462189 100.91311453 -130.86225414 105.46849799 C-130.8532277 110.37791222 -130.86716139 115.28726784 -130.87817383 120.19667053 C-130.89598941 129.81754417 -130.89210555 139.43829321 -130.88052326 149.0591718 C-130.87150115 156.87608244 -130.87025964 164.69295808 -130.87461853 172.50987244 C-130.87523146 173.62109544 -130.87584439 174.73231845 -130.8764759 175.87721488 C-130.87775476 178.13442283 -130.87905161 180.39163077 -130.88036627 182.6488387 C-130.89178097 203.83020718 -130.8786444 225.0115065 -130.8571648 246.19286364 C-130.83929302 264.37974974 -130.84239688 282.56653372 -130.86083984 300.75341797 C-130.88223084 321.85737748 -130.89068225 342.96127632 -130.87839079 364.06524515 C-130.87711655 366.31429449 -130.87585907 368.56334383 -130.87461853 370.81239319 C-130.87400143 371.91905861 -130.87338433 373.02572402 -130.87274852 374.16592476 C-130.86929031 381.97626747 -130.87513411 389.7865718 -130.88453674 397.59690857 C-130.89573844 407.11107692 -130.89275526 416.62511321 -130.87141377 426.13926637 C-130.86087868 430.99645278 -130.85682325 435.85341878 -130.87001038 440.71060371 C-130.88188938 445.15305684 -130.87544642 449.59508428 -130.85410017 454.03749853 C-130.84961495 455.64847152 -130.85194314 457.25948014 -130.86160332 458.87043041 C-130.87369371 461.05332119 -130.86136984 463.23473659 -130.84272003 465.41754913 C-130.84207062 466.63200478 -130.84142121 467.84646043 -130.84075212 469.09771776 C-130.55875733 472.21929708 -130.55875733 472.21929708 -128.65421057 474.55114651 C-125.80580605 476.53221749 -124.25077371 476.66221084 -120.79830933 476.66449738 C-119.66419176 476.67492836 -118.5300742 476.68535935 -117.36158943 476.69610643 C-115.49215833 476.6827221 -115.49215833 476.6827221 -113.58496094 476.66906738 C-112.24791725 476.67367535 -110.91087863 476.68002758 -109.57385063 476.68797636 C-105.89636313 476.70470749 -102.21928969 476.69640645 -98.5418005 476.68403149 C-94.5771749 476.67499866 -90.61262159 476.6889419 -86.64801025 476.69995117 C-78.88001411 476.71775995 -71.11217235 476.71388595 -63.34417009 476.70230061 C-57.0323106 476.69327581 -50.72049446 476.69203814 -44.40863037 476.69639587 C-43.51111018 476.69700881 -42.61358999 476.69762174 -41.68887222 476.69825324 C-39.86571327 476.69953211 -38.04255433 476.70082897 -36.2193954 476.70214361 C-19.11402501 476.71355632 -2.0087403 476.70042489 15.09661603 476.67894214 C29.78141324 476.66107053 44.46608398 476.66417445 59.15087891 476.68261719 C76.19403861 476.70401172 93.23712317 476.71245762 110.28029442 476.70016813 C112.09683608 476.6988939 113.91337775 476.69763642 115.72991943 476.69639587 C117.07066282 476.69547022 117.07066282 476.69547022 118.43849194 476.69452587 C124.74451505 476.69106871 131.0504906 476.69690918 137.35650635 476.70631409 C145.03896639 476.71751973 152.72126291 476.71452436 160.40370417 476.69319111 C164.32523508 476.68266124 168.24649312 476.67859154 172.16802216 476.69178772 C175.75561661 476.70367781 179.34268441 476.69720588 182.93023086 476.67587751 C184.84778054 476.66926889 186.76536657 476.68237787 188.68287849 476.69610643 C190.38405484 476.68045995 190.38405484 476.68045995 192.11959839 476.66449738 C193.10014631 476.66384797 194.08069424 476.66319856 195.09095573 476.66252947 C198.51724609 475.99399306 199.65496418 475.00575673 201.66064453 472.16113281 C202.26083669 469.00977298 202.26083669 469.00977298 202.16400909 465.41754913 C202.17272974 464.39686687 202.17272974 464.39686687 202.18162656 463.35556477 C202.19628021 461.06452689 202.18231744 458.77455142 202.1685791 456.48352051 C202.17318593 454.82886852 202.17953737 453.17422062 202.18748808 451.51958132 C202.20423467 446.96419929 202.19591095 442.40915109 202.18354321 437.85376763 C202.17451676 432.94435341 202.18845046 428.03499779 202.19946289 423.12559509 C202.21727848 413.50472145 202.21339461 403.88397241 202.20181233 394.26309383 C202.19279022 386.44618319 202.1915487 378.62930754 202.19590759 370.81239319 C202.19682699 369.14555868 202.19682699 369.14555868 202.19776496 367.44505075 C202.19904382 365.1878428 202.20034068 362.93063486 202.20165533 360.67342693 C202.21307003 339.49205844 202.19993346 318.31075912 202.17845386 297.12940198 C202.16058209 278.94251589 202.16368594 260.75573191 202.18212891 242.56884766 C202.2035199 221.46488815 202.21197131 200.36098931 202.19967985 179.25702047 C202.19840561 177.00797114 202.19714813 174.75892179 202.19590759 172.50987244 C202.19529049 171.40320702 202.19467339 170.2965416 202.19403759 169.15634087 C202.19057937 161.34599815 202.19642318 153.53569383 202.20582581 145.72535706 C202.21702751 136.21118871 202.21404433 126.69715241 202.19270283 117.18299925 C202.18216774 112.32581284 202.17811231 107.46884685 202.19129944 102.61166191 C202.20317844 98.16920878 202.19673548 93.72718134 202.17538923 89.28476709 C202.17090402 87.6737941 202.1732322 86.06278548 202.18289238 84.45183522 C202.19498278 82.26894443 202.18265891 80.08752904 202.16400909 77.90471649 C202.16335968 76.69026084 202.16271028 75.4758052 202.16204119 74.22454786 C201.56057698 70.54974375 200.61654576 69.36249516 197.66064453 67.16113281 C194.51645057 66.58231568 194.51645057 66.58231568 190.96435547 66.70703125 C190.30052856 66.70644714 189.63670166 66.70586304 188.95275879 66.70526123 C186.76630715 66.70804016 184.58123191 66.73911954 182.39501953 66.77050781 C180.87616724 66.77797097 179.35730531 66.78366355 177.83843994 66.78765869 C173.84661128 66.8029094 169.85536756 66.84218559 165.86376953 66.88647461 C161.78832919 66.92743992 157.71279405 66.94567235 153.63720703 66.96582031 C145.64475151 67.00868107 137.65277085 67.07692477 129.66064453 67.16113281 C129.64606201 67.93303955 129.63147949 68.70494629 129.61645508 69.50024414 C129.5420642 72.99188374 129.44537363 76.48255771 129.34814453 79.97363281 C129.32558594 81.18857422 129.30302734 82.40351562 129.27978516 83.65527344 C129.24433594 84.81865234 129.20888672 85.98203125 129.17236328 87.18066406 C129.1461792 88.25421143 129.11999512 89.32775879 129.09301758 90.43383789 C128.66064453 93.16113281 128.66064453 93.16113281 127.58200073 94.80777931 C124.71452594 96.82755423 121.86758985 96.57489522 118.48657227 96.54208374 C117.75108626 96.54676371 117.01560026 96.55144368 116.25782681 96.55626547 C113.78644871 96.56825825 111.31562076 96.55874182 108.84423828 96.54931641 C107.07528356 96.55338022 105.30633138 96.55872102 103.53738403 96.56524658 C98.72753325 96.5789487 93.91787503 96.57360961 89.10802078 96.56410933 C84.0805534 96.5565277 79.05310278 96.56355416 74.02563477 96.56826782 C65.58200105 96.57372975 57.138446 96.5665223 48.69482422 96.55224609 C38.92508485 96.53591875 29.15553327 96.54120695 19.38579845 96.55772531 C11.00612623 96.57132773 2.62651063 96.57326593 -5.75316906 96.5654093 C-10.76167569 96.56072594 -15.77009397 96.56012612 -20.77859497 96.57001877 C-25.48670391 96.57866808 -30.1945701 96.57270389 -34.90265274 96.555336 C-36.6332776 96.55136024 -38.3639228 96.55252373 -40.09453964 96.55912399 C-42.45173244 96.56728684 -44.80814079 96.55708248 -47.1652832 96.54208374 C-47.85486901 96.54877591 -48.54445482 96.55546807 -49.25493717 96.56236303 C-52.07473613 96.52741013 -53.91934095 96.45698015 -56.26071167 94.80777931 C-57.89897193 92.30682809 -57.77879503 90.14411075 -57.85107422 87.18066406 C-57.88652344 86.01728516 -57.92197266 84.85390625 -57.95849609 83.65527344 C-57.98105469 82.44033203 -58.00361328 81.22539063 -58.02685547 79.97363281 C-58.06101562 78.74708984 -58.09517578 77.52054688 -58.13037109 76.25683594 C-58.21294957 73.22502603 -58.28206916 70.19350902 -58.33935547 67.16113281 C-67.13630039 67.0684449 -75.93307718 66.99737435 -84.7304039 66.95388412 C-88.81539917 66.9330107 -92.90006031 66.90469818 -96.98486328 66.859375 C-100.92709892 66.81590751 -104.86901324 66.79199386 -108.81147003 66.78162384 C-110.31540231 66.774234 -111.81931704 66.75980314 -113.32311249 66.73821259 C-115.43015006 66.70916469 -117.53586076 66.7051771 -119.64306641 66.70703125 C-120.84219666 66.6981488 -122.0413269 66.68926636 -123.27679443 66.68011475 C-127.07968231 67.2774115 -128.01242023 68.13694524 -130.33935547 71.16113281 Z " fill="#0d6efd" transform="translate(220.33935546875,9.8388671875)"/>
<path d="M0 0 C1.26070312 1.01707031 1.26070312 1.01707031 2.546875 2.0546875 C17.40889928 14.70992636 27.6025908 33.11795145 29.22314453 52.69580078 C30.45502394 75.39868181 25.6274044 96.1408967 10.33203125 113.546875 C-5.67369068 130.38371482 -25.68092568 139.66836138 -49 140.375 C-61.21459219 139.98909942 -73.07020078 137.52545251 -84 132 C-84.97195312 131.51917969 -85.94390625 131.03835938 -86.9453125 130.54296875 C-105.20169878 120.74744034 -117.3036376 104.63148858 -124.328125 85.35546875 C-130.63458374 63.79359748 -127.8759702 41.28800263 -117.19921875 21.6953125 C-106.40661467 2.97531236 -88.53011908 -9.24410963 -68 -15 C-44.05734697 -20.33611054 -19.16606286 -15.58057491 0 0 Z M-96.96484375 22.1171875 C-106.8232937 33.8955544 -111.74483334 49.25332527 -111.35546875 64.53125 C-110.37039062 74.14388055 -107.88654109 83.62307241 -103 92 C-100.0080265 92.3365155 -100.0080265 92.3365155 -98.39453125 90.5390625 C-97.87246094 89.90742188 -97.35039062 89.27578125 -96.8125 88.625 C-96.28269531 87.99851562 -95.75289062 87.37203125 -95.20703125 86.7265625 C-93.80901185 85.07791367 -93.80901185 85.07791367 -94 83 C-93.443125 82.74089844 -92.88625 82.48179687 -92.3125 82.21484375 C-89.7122169 80.84881665 -87.39602836 79.26090425 -85 77.5625 C-84.154375 76.96566406 -83.30875 76.36882812 -82.4375 75.75390625 C-80.27096642 74.19497424 -78.12809762 72.61085167 -76 71 C-76.39832031 70.46632813 -76.79664063 69.93265625 -77.20703125 69.3828125 C-83.80032246 60.11049542 -86.08447234 51.37189741 -85 40 C-83.31539106 30.41176743 -78.47253538 22.35515573 -70.86328125 16.28125 C-60.86404754 9.40546665 -49.632014 8.41299618 -37.85546875 10.578125 C-29.40237711 13.23861164 -22.72804624 18.58078688 -18.078125 26.11328125 C-12.63260812 36.73203917 -11.04633208 46.7173898 -14.6875 58.375 C-16.48541588 63.23388377 -18.72745736 67.00022567 -22 71 C-19.03737648 73.24254141 -16.03569632 75.41992775 -13 77.5625 C-11.7315625 78.46162109 -11.7315625 78.46162109 -10.4375 79.37890625 C-8.08965168 81.01685604 -8.08965168 81.01685604 -5.74609375 82.10546875 C-3.39238231 83.31128513 -3.12320584 84.62144646 -2 87 C-0.40356422 89.06776444 1.29138559 91.02160437 3 93 C8.98273128 89.01151248 10.74448701 79.80965642 12.3125 73 C14.98462497 56.86347835 11.70830153 40.16502188 2.37109375 26.640625 C-7.67185816 13.25002245 -19.97803637 4.7503378 -36.29296875 0.38671875 C-60.36288017 -3.05184002 -80.39196106 4.25932981 -96.96484375 22.1171875 Z M-65.4375 32.8125 C-69.05859149 38.25419583 -70.69382226 43.35507691 -69.60546875 49.94921875 C-67.55048663 56.90964206 -63.01678541 61.70469405 -56.8125 65.25 C-50.08999406 67.04266825 -43.82809538 66.76252073 -37.75 63.2578125 C-32.48525258 59.47377529 -29.32048306 54.26942392 -28 48 C-27.51364921 41.6435083 -29.55744446 37.04222126 -33.24609375 31.94921875 C-37.34999809 27.38830947 -42.54561177 25.21158519 -48.625 24.6875 C-55.54990745 24.8275257 -61.10701346 27.38622125 -65.4375 32.8125 Z M-85 98.25 C-88.62750872 102.14531852 -88.62750872 102.14531852 -89.89453125 106.97265625 C-86.86219649 113.84506559 -76.55654783 117.31846466 -70.0546875 119.95703125 C-54.16220102 125.38323827 -37.17335016 124.61728547 -21.91015625 117.57421875 C-16.75913116 114.89845135 -12.27142564 111.92509383 -8 108 C-9.4434831 100.44689075 -15.87186975 94.25832673 -22 90 C-42.66412571 77.96814616 -68.67374322 79.9376625 -85 98.25 Z " fill="#0d6efd"  transform="translate(305,142)"/>
<path d="M0 0 C0.7807028 -0.0055344 1.56140559 -0.01106879 2.36576605 -0.0167709 C4.97842204 -0.03037028 7.59012153 -0.01541253 10.20275879 -0.00050354 C12.07713731 -0.00428698 13.95151303 -0.00978723 15.82588196 -0.01687622 C20.91472105 -0.03084478 26.00322256 -0.01965115 31.09204292 -0.00316501 C36.4161824 0.01067934 41.74030215 0.00422611 47.06445312 0.0007019 C56.00562992 -0.0020007 64.94667252 0.01147976 73.88781738 0.03465271 C84.22673518 0.06126273 94.56542857 0.06300971 104.90436888 0.05126435 C114.84788098 0.04048713 124.79131186 0.04667321 134.7348175 0.06081963 C138.96757424 0.0665799 143.20027156 0.0664964 147.43302917 0.06175423 C152.41695941 0.05698379 157.40064375 0.067089 162.38452721 0.08870888 C164.21428791 0.09427599 166.04407224 0.09474274 167.87383461 0.08975601 C170.37034604 0.08380516 172.86610519 0.09630412 175.36254883 0.11352539 C176.08774515 0.10751535 176.81294147 0.1015053 177.56011343 0.09531313 C181.92669469 0.15013859 184.70628171 0.8188906 188.18127441 3.50120544 C189.6078966 6.35444982 189.49161309 8.33575093 189.18127441 11.50120544 C187.0303699 14.8388159 185.97714642 16.23591477 182.18127441 17.50120544 C179.68385279 17.59881431 177.21443989 17.64029477 174.71694946 17.63491821 C173.56683453 17.63831655 173.56683453 17.63831655 172.39348495 17.64178354 C169.81638527 17.64812913 167.23933809 17.64729381 164.66223145 17.64646912 C162.81770764 17.64946026 160.97318446 17.65286269 159.12866211 17.65664673 C154.11213176 17.66549556 149.09561846 17.66782522 144.07908106 17.66846251 C139.89410721 17.66941104 135.70913735 17.67308869 131.52416503 17.67663461 C121.65189085 17.68478256 111.77962579 17.68721854 101.90734863 17.68650818 C91.71734351 17.68590732 81.52739132 17.69646004 71.3373996 17.71225184 C62.59423101 17.72531954 53.85107974 17.7306924 45.10790145 17.73005277 C39.88360286 17.72979755 34.65935129 17.73266187 29.43506241 17.74323082 C24.52181333 17.7528988 19.60865634 17.75299991 14.69540405 17.74571419 C12.89143617 17.74466672 11.08746259 17.74704082 9.28350449 17.75307465 C6.822083 17.76077469 4.3609811 17.756163 1.89956665 17.7484436 C0.82723508 17.75615895 0.82723508 17.75615895 -0.26675975 17.76403016 C-4.20934805 17.73668233 -7.33421265 17.40730189 -10.81872559 15.50120544 C-12.94600318 12.31028905 -13.15253971 10.2996077 -13.37731934 6.53636169 C-11.65661844 0.26723466 -5.50872785 -0.07296144 0 0 Z " fill="#0d6efd" transform="translate(202.8187255859375,377.49879455566406)"/>
<path d="M0 0 C1.15139657 -0.00445668 1.15139657 -0.00445668 2.32605368 -0.0090034 C4.90004312 -0.0176802 7.47398599 -0.01919777 10.04798889 -0.02069092 C11.89266051 -0.02531971 13.73733118 -0.03034445 15.58200073 -0.03573608 C20.59433607 -0.04885379 25.60665801 -0.05530349 30.61900783 -0.05974674 C33.74949178 -0.0626777 36.87997207 -0.06678249 40.01045418 -0.07125092 C49.80230249 -0.08492246 59.59414243 -0.09459153 69.38599962 -0.09845281 C80.69493352 -0.10293675 92.00374675 -0.12050169 103.31264395 -0.1494534 C112.05158644 -0.17105073 120.79049492 -0.181156 129.52946383 -0.18249393 C134.75042233 -0.1835431 139.97126735 -0.18947503 145.1921978 -0.20731354 C150.10138714 -0.22376113 155.01037725 -0.22596587 159.91958427 -0.21717453 C161.7219445 -0.21640245 163.52431531 -0.22076929 165.32664871 -0.23063278 C167.78595702 -0.24330324 170.24455442 -0.23750256 172.70385742 -0.22705078 C173.41806302 -0.23510719 174.13226861 -0.24316359 174.8681168 -0.25146413 C179.22261116 -0.20814155 181.96188554 0.45801294 185.41542053 3.14044189 C187.74291398 6.63168206 187.91841369 8.0326644 187.41542053 12.14044189 C185.54832143 14.44319746 184.05894312 15.8186806 181.41542053 17.14044189 C178.92044363 17.24460165 176.45298285 17.28823978 173.9574585 17.28761292 C173.17931897 17.2912896 172.40117945 17.29496629 171.59945995 17.29875439 C168.97780416 17.30981549 166.35618798 17.31363916 163.73451233 17.31744385 C161.86057915 17.32370662 159.98664723 17.33035326 158.11271667 17.33735657 C153.01142674 17.35478255 147.91014618 17.36532249 142.80883384 17.3735621 C139.62375267 17.37870842 136.43867445 17.38478429 133.25359535 17.39107323 C123.29408656 17.41012898 113.33458521 17.42435981 103.37506169 17.4326852 C91.86741182 17.44246278 80.35995403 17.46879433 68.85237187 17.50918609 C59.96485181 17.53931409 51.07738692 17.55415088 42.18981677 17.55746621 C36.87824511 17.55982031 31.56687857 17.56882761 26.25536156 17.59392738 C21.25915666 17.61715539 16.26329271 17.6214626 11.26704788 17.611166 C9.43243211 17.61066926 7.59779985 17.61703031 5.76323509 17.63072205 C3.25985647 17.64836116 0.75771204 17.64137488 -1.7456665 17.62818909 C-2.47290918 17.63915833 -3.20015186 17.65012758 -3.94943219 17.66142923 C-8.75075672 17.60030672 -11.22941217 16.57319336 -14.58457947 13.14044189 C-15.67622862 9.4633079 -15.06072143 6.06891871 -13.33457947 2.70294189 C-9.59164825 -0.63896098 -4.76958101 -0.00576849 0 0 Z " fill="#0d6efd" transform="translate(204.58457946777344,314.85955810546875)"/>
<path d="M0 0 C0.78478635 -0.00694553 1.5695727 -0.01389106 2.37814045 -0.02104706 C5.00458103 -0.03932548 7.6301192 -0.02905076 10.2565918 -0.01878357 C12.14082516 -0.02584158 14.02505284 -0.0345861 15.90927124 -0.04489136 C21.02494299 -0.06740698 26.14030569 -0.06444071 31.25600815 -0.05556989 C35.52560309 -0.05046296 39.7951398 -0.05775008 44.06472874 -0.06504196 C54.13557072 -0.08204751 64.2062612 -0.07846804 74.27709961 -0.06175232 C84.67063689 -0.04482422 95.06375439 -0.06067361 105.45724583 -0.0929752 C114.37882631 -0.11965299 123.30027598 -0.12695217 132.22189236 -0.11846012 C137.55131281 -0.11352637 142.88048056 -0.115771 148.20986938 -0.13624763 C153.22017947 -0.15457663 158.22988451 -0.14868005 163.2401619 -0.12404823 C165.07960329 -0.11903178 166.91909056 -0.12255168 168.75849533 -0.13519669 C171.26856961 -0.15108813 173.77664189 -0.13621534 176.28662109 -0.11352539 C177.01570836 -0.12536112 177.74479563 -0.13719685 178.49597645 -0.14939123 C182.37300503 -0.0781144 184.0263172 0.42158149 187.09919739 2.86642551 C189.14331055 5.5146637 189.14331055 5.5146637 189.70581055 8.5146637 C188.99110724 12.32641468 187.94355496 13.83057623 185.14331055 16.5146637 C182.33638984 17.01548856 180.13039669 17.1877073 177.32421875 17.14285278 C176.53141416 17.14994717 175.73860956 17.15704156 174.92178059 17.16435093 C172.26205958 17.18196993 169.60379244 17.16380715 166.9440918 17.14576721 C165.03867933 17.15090456 163.13327162 17.15818443 161.22787476 17.16744995 C156.05014393 17.18599569 150.87292671 17.17300529 145.69521713 17.15335965 C140.28118013 17.13699807 134.8671763 17.14578257 129.453125 17.15087891 C120.36051205 17.15540265 111.26810462 17.13951258 102.17553711 17.11158752 C91.65764105 17.07953443 81.14011572 17.07955048 70.62219334 17.09680229 C60.51153977 17.11265642 50.40102235 17.10594098 40.29037476 17.08886528 C35.98420598 17.0819859 31.67814604 17.08303634 27.37197876 17.09041023 C22.30263679 17.09806149 17.23371761 17.0859848 12.16444778 17.05856133 C10.30202108 17.05166423 8.43955499 17.05159365 6.57712936 17.05877686 C4.03841239 17.06744143 1.50100924 17.05156738 -1.03759766 17.02932739 C-1.77806178 17.03756816 -2.51852591 17.04580893 -3.28142834 17.05429941 C-6.73979977 16.99821788 -8.54238485 16.7590011 -11.3099823 14.60749722 C-12.97767432 12.35096032 -13.42460716 11.2885302 -13.41918945 8.5146637 C-13.44110352 7.8546637 -13.46301758 7.1946637 -13.4855957 6.5146637 C-11.53342054 0.30650417 -5.58750676 -0.06315477 0 0 Z " fill="#0d6efd"  transform="translate(202.856689453125,440.48533630371094)"/>
<path d="M0 0 C2.4375 1.5 2.4375 1.5 4 4 C4.77072552 7.43862157 4.97200421 8.74861751 4 12 C1.9411442 15.13178065 -0.60748057 17.68546511 -3.27734375 20.30371094 C-5.37534906 22.36960392 -7.4364678 24.46999262 -9.5 26.5703125 C-12.6852388 29.79660977 -15.87463464 33.01837691 -19.0859375 36.21875 C-19.7670459 36.89873047 -20.4481543 37.57871094 -21.14990234 38.27929688 C-23.79311853 40.73764838 -25.6023963 41.92983464 -29.1875 42.5625 C-34.67474142 41.752907 -37.19297701 38.8442737 -41 35 C-41.66902344 34.35546875 -42.33804688 33.7109375 -43.02734375 33.046875 C-48.84638535 27.38253185 -48.84638535 27.38253185 -49.3125 23.1875 C-48.91378388 19.1205956 -48.11416229 17.64703795 -45 15 C-40.73940768 14.21889141 -38.50858788 14.038675 -34.83496094 16.37963867 C-34.14176758 16.9285376 -33.44857422 17.47743652 -32.734375 18.04296875 C-31.67814941 18.86897583 -31.67814941 18.86897583 -30.60058594 19.71166992 C-30.07239258 20.13681885 -29.54419922 20.56196777 -29 21 C-28.40461426 20.39937744 -27.80922852 19.79875488 -27.19580078 19.17993164 C-24.98752141 16.95461906 -22.77700557 14.73155962 -20.56494141 12.51000977 C-19.60765619 11.54769305 -18.65127006 10.58448108 -17.69580078 9.62036133 C-16.32300212 8.23544555 -14.94670528 6.85400009 -13.5703125 5.47265625 C-12.32918701 4.22367554 -12.32918701 4.22367554 -11.06298828 2.94946289 C-7.48389993 -0.43266971 -4.8681963 -0.41967209 0 0 Z " fill="#0d6efd" transform="translate(169,359)"/>
<path d="M0 0 C2.875 1.5 2.875 1.5 5 4 C5.6764412 7.38220602 5.90540664 8.81618882 5 12 C3.77563477 13.78051758 3.77563477 13.78051758 2.12890625 15.58203125 C1.49581543 16.27474121 0.86272461 16.96745117 0.21044922 17.68115234 C-4.06508592 22.16635587 -8.42192425 26.56510469 -12.8125 30.9375 C-13.77555913 31.90412902 -14.73845081 32.8709249 -15.70117188 33.83789062 C-16.61060547 34.74603516 -17.52003906 35.65417969 -18.45703125 36.58984375 C-19.28178955 37.41347412 -20.10654785 38.23710449 -20.95629883 39.08569336 C-23.52183403 41.48879473 -24.62122684 41.93939629 -28.125 42.5 C-33.68759747 41.78224549 -36.15634585 38.88126329 -40 35 C-40.66902344 34.35546875 -41.33804688 33.7109375 -42.02734375 33.046875 C-47.84638535 27.38253185 -47.84638535 27.38253185 -48.3125 23.1875 C-47.91378388 19.1205956 -47.11416229 17.64703795 -44 15 C-39.73940768 14.21889141 -37.50858788 14.038675 -33.83496094 16.37963867 C-33.14176758 16.9285376 -32.44857422 17.47743652 -31.734375 18.04296875 C-30.67814941 18.86897583 -30.67814941 18.86897583 -29.60058594 19.71166992 C-29.07239258 20.13681885 -28.54419922 20.56196777 -28 21 C-27.40461426 20.39937744 -26.80922852 19.79875488 -26.19580078 19.17993164 C-23.98752141 16.95461906 -21.77700557 14.73155962 -19.56494141 12.51000977 C-18.60765619 11.54769305 -17.65127006 10.58448108 -16.69580078 9.62036133 C-15.32300212 8.23544555 -13.94670528 6.85400009 -12.5703125 5.47265625 C-11.32918701 4.22367554 -11.32918701 4.22367554 -10.06298828 2.94946289 C-6.73239804 -0.19784635 -4.54064589 -0.44516136 0 0 Z " fill="#0d6efd"  transform="translate(168,296)"/>
<path d="M0 0 C3.46875 0.75 3.46875 0.75 5.96875 2.25 C8.05276428 5.72335713 8.24829551 8.85082234 7.46875 12.75 C5.82497451 15.51740403 3.68012921 17.61552577 1.37109375 19.83984375 C0.74401016 20.4698378 0.11692657 21.09983185 -0.52915955 21.74891663 C-1.85544668 23.07189403 -3.19161451 24.38503083 -4.53686523 25.6887207 C-6.587663 27.68158496 -8.59850608 29.70915737 -10.60742188 31.74414062 C-11.90403715 33.02827987 -13.20279762 34.31025745 -14.50390625 35.58984375 C-15.10211685 36.19392563 -15.70032745 36.79800751 -16.31666565 37.4203949 C-20.20514603 41.13882029 -22.92570439 42.69974309 -28.53125 42.75 C-35.32873786 39.49902755 -41.39702764 32.95133353 -45.53125 26.75 C-45.95504221 22.86523809 -46.14582992 20.64823219 -43.90625 17.375 C-40.96846938 15.36493957 -39.0916004 14.82266021 -35.53125 14.75 C-31.75376577 16.50054147 -28.76373401 19.15218007 -25.53125 21.75 C-24.93699219 21.11384766 -24.34273437 20.47769531 -23.73046875 19.82226562 C-21.50288556 17.45784023 -19.25741986 15.11234059 -16.99853516 12.77783203 C-16.02719073 11.76640551 -15.0631644 10.74789515 -14.10693359 9.72216797 C-5.11858515 0.09780736 -5.11858515 0.09780736 0 0 Z " fill="#0d6efd" transform="translate(165.53125,421.25)"/>
</svg>
